<svg width="100" height="125" viewBox="0 0 100 125" fill="none" xmlns="http://www.w3.org/2000/svg">
<path d="M34.4684 99.7089C38.1898 97.1272 39.6551 97.197 42.3298 100.035C43.0973 99.0577 44.0509 98.3832 45.2371 98.0576C48.4003 97.1505 51.0982 99.0344 51.2145 102.314C51.3076 105.012 51.2378 107.733 51.261 110.454C51.261 111.036 51.0982 111.245 50.4703 111.268C48.2142 111.361 48.2142 111.385 48.2142 109.129C48.2142 107.314 48.2374 105.477 48.2142 103.663C48.1909 101.756 47.1908 100.616 45.6092 100.616C43.9811 100.616 42.9113 101.709 42.8647 103.57C42.795 105.733 42.795 107.919 42.8415 110.082C42.8647 110.966 42.6554 111.315 41.7018 111.268C39.8411 111.199 39.8179 111.268 39.8179 109.454C39.8179 107.71 39.8179 105.965 39.8179 104.221C39.8179 103.733 39.7714 103.221 39.6551 102.733C39.3295 101.36 38.4224 100.616 37.1199 100.639C35.8174 100.663 34.7475 101.477 34.515 102.826C34.1428 104.942 34.3987 107.082 34.3522 109.198C34.3056 111.361 34.3522 111.361 32.1426 111.268C31.5844 111.245 31.3053 111.129 31.3053 110.501C31.3286 106.617 31.3286 102.756 31.3053 98.8716C31.3053 98.3134 31.5379 98.1041 32.0728 98.1506C32.2356 98.1506 32.3752 98.1506 32.538 98.1506C34.2824 98.1273 34.2824 98.1273 34.4684 99.7089Z" fill="#7FA62A"/>
<path d="M6.93049 111.478C4.53487 111.408 2.39509 110.71 0.46464 109.268C-0.116821 108.849 -0.140079 108.594 0.325089 108.012C1.53453 106.593 1.51127 106.547 2.99981 107.5C4.3488 108.361 5.79082 108.78 7.39565 108.733C7.95386 108.71 8.46554 108.57 8.95397 108.338C9.7215 107.966 10.1169 107.407 10.1169 106.5C10.1169 105.616 9.67498 105.082 8.97723 104.779C8.09341 104.407 7.16307 104.105 6.23273 103.872C5.25588 103.639 4.27902 103.36 3.37194 102.965C1.62756 102.221 0.557674 101.011 0.487899 99.0111C0.418123 96.8248 1.30194 95.1967 3.23239 94.3361C6.4188 92.9173 9.41914 93.5918 12.2334 95.4758C12.5823 95.7084 12.6521 95.8944 12.373 96.2898C11.2333 98.0575 11.2566 98.0575 9.39588 97.1271C8.27948 96.5689 7.07004 96.2666 5.81408 96.3828C4.53487 96.4991 3.67431 97.1969 3.55801 98.1737C3.41846 99.4064 4.13947 100.058 5.1861 100.383C6.46532 100.802 7.79105 101.081 9.07026 101.523C12.373 102.663 13.5359 104.314 13.094 107.221C12.7451 109.594 10.5588 111.268 7.58172 111.454C7.39565 111.501 7.16307 111.478 6.93049 111.478Z" fill="#7FA62A"/>
<path d="M84.1485 109.663C82.7297 110.989 81.3807 111.547 79.7992 111.524C77.1942 111.524 75.287 109.942 75.194 107.756C75.0777 105.104 76.6593 103.383 79.4735 103.151C80.7993 103.034 82.125 103.034 83.381 103.453C84.102 103.686 84.102 103.36 84.0322 102.872C83.8926 101.639 82.7995 100.755 81.311 100.639C80.2178 100.546 79.1247 100.662 78.1245 101.127C77.1709 101.569 76.9151 101.081 76.6825 100.313C76.4732 99.5689 76.1011 98.941 77.3105 98.5921C79.0549 98.0572 80.7993 97.8478 82.5669 98.0339C85.1719 98.313 86.9162 100.15 87.0325 102.825C87.1256 105.384 87.0558 107.942 87.079 110.477C87.079 111.012 86.9395 111.291 86.358 111.245C86.0092 111.221 85.6603 111.198 85.3114 111.245C84.3345 111.407 83.8461 111.082 84.1485 109.663ZM81.3342 105.197C80.5434 105.221 79.7759 105.314 79.0781 105.732C77.985 106.384 77.8687 107.872 78.8456 108.663C80.3108 109.849 83.2181 109.128 83.9392 107.384C84.4043 106.221 84.1485 105.709 82.9158 105.453C82.4041 105.36 81.8692 105.291 81.3342 105.197Z" fill="#7FA62A"/>
<path d="M23.5603 105.756C22.2113 105.756 20.839 105.779 19.49 105.733C18.769 105.709 18.7458 105.988 18.9318 106.57C19.6994 109.059 22.9323 109.849 25.3046 108.151C25.5837 107.942 25.7698 107.361 26.235 107.71C26.7467 108.105 27.2816 108.547 27.6305 109.059C27.8166 109.338 27.3049 109.617 27.0723 109.826C24.9325 111.757 21.5368 112.105 18.9551 110.64C16.5595 109.291 15.257 106.337 15.7919 103.453C16.6292 99.1505 20.5367 96.7781 24.4208 98.2666C26.9327 99.2202 28.7934 102.5 28.3748 105.128C28.305 105.64 28.0491 105.733 27.6072 105.733C26.2815 105.733 24.9092 105.756 23.5603 105.756ZM21.9322 103.802C22.7927 103.802 23.63 103.756 24.4906 103.825C25.3279 103.872 25.3744 103.5 25.1883 102.849C24.7464 101.22 23.537 100.337 21.8624 100.406C20.4204 100.453 19.1412 101.662 18.8388 103.151C18.7225 103.686 18.8621 103.849 19.397 103.825C20.2343 103.802 21.0949 103.802 21.9322 103.802Z" fill="#7FA62A"/>
<path d="M94.8008 111.5C93.3356 111.431 91.7307 110.966 90.2422 110.058C89.6375 109.686 89.5677 109.407 89.9398 108.802C90.498 107.872 90.9167 107.36 92.0796 108.221C93.103 108.989 94.4054 109.221 95.7312 109.035C96.4289 108.942 96.9871 108.616 97.1034 107.849C97.2197 107.081 96.6848 106.732 96.1033 106.477C94.7543 105.872 93.2658 105.709 91.9633 104.965C89.87 103.802 89.4979 101.057 91.1725 99.3363C92.2657 98.2199 93.6147 97.8943 95.1032 97.9408C96.3824 97.9873 97.6151 98.3594 98.778 98.9409C99.2897 99.1967 99.8712 99.4293 99.2897 100.081C98.8478 100.569 98.9641 101.918 97.6616 101.197C96.708 100.662 95.6847 100.336 94.5683 100.383C93.7775 100.406 93.1495 100.685 92.9867 101.453C92.8006 102.267 93.4984 102.616 94.0798 102.872C95.3823 103.43 96.8243 103.686 98.0803 104.383C99.406 105.151 100.081 106.244 99.9177 107.826C99.7549 109.291 99.0339 110.338 97.6616 110.942C96.8243 111.338 95.9638 111.5 94.8008 111.5Z" fill="#7FA62A"/>
<path d="M65.1463 102.197C65.1463 104.872 65.1231 107.547 65.1696 110.222C65.1928 111.012 64.9835 111.315 64.1462 111.291C61.7041 111.198 62.0995 111.617 62.0995 109.291C62.0762 104.267 62.0995 99.2204 62.0762 94.1965C62.0762 93.3825 62.2855 93.1499 63.0996 93.1499C65.1696 93.1964 65.1696 93.1499 65.1696 95.2432C65.1463 97.5457 65.1463 99.8716 65.1463 102.197Z" fill="#81A72E"/>
<path d="M72.2169 102.244C72.2169 104.919 72.1936 107.593 72.2402 110.245C72.2402 110.942 72.1239 111.268 71.3098 111.268C69.1933 111.268 69.1933 111.315 69.1933 109.221C69.1933 104.267 69.2166 99.3132 69.17 94.3592C69.17 93.4521 69.3096 93.0567 70.333 93.1265C72.1936 93.2195 72.2169 93.1497 72.2169 95.0337C72.2169 97.4526 72.2169 99.8482 72.2169 102.244Z" fill="#80A72C"/>
<path d="M55.0057 104.686C55.0057 102.779 55.0289 100.895 54.9824 98.9876C54.9592 98.3364 55.1685 98.1271 55.843 98.1271C58.0293 98.0805 58.0293 98.0573 58.0293 100.197C58.0293 103.523 58.006 106.849 58.0525 110.198C58.0758 111.059 57.8665 111.338 56.9594 111.315C55.0057 111.268 55.0057 111.315 55.0057 109.361C55.0057 107.779 55.0057 106.221 55.0057 104.686Z" fill="#7FA62A"/>
<path d="M56.4012 96.1736C55.9825 96.0573 55.1917 96.476 55.0057 95.941C54.7731 95.2433 54.9126 94.4292 54.9359 93.6384C54.9359 93.3361 55.2382 93.3361 55.4708 93.3361C55.9825 93.3361 56.4709 93.3826 56.9826 93.3128C57.9827 93.1733 58.2153 93.5919 58.1921 94.5455C58.1223 96.1736 58.1921 96.1736 56.4012 96.1736Z" fill="#81A72D"/>
<path d="M51.0517 2.44201C52.1681 4.0701 53.4241 5.5819 54.2846 7.3728C55.0754 9.02415 55.6569 10.7453 55.4941 12.6292C55.2615 15.0946 52.7961 17.7461 50.3307 18.1647C50.1911 18.188 50.0283 18.2112 49.8888 18.1647C46.7954 17.1181 44.0742 14.7922 44.865 10.5359C45.4232 7.60538 47.0745 5.23302 49.098 2.67459C49.4236 6.74482 49.7027 10.5127 50.0051 14.2806C50.0516 14.2806 50.0981 14.2806 50.1214 14.2806C50.1214 10.3499 50.1214 5.39583 50.1214 1.44189L51.0517 2.44201Z" fill="#80A62B"/>
<path d="M49.6795 86.4282C48.8655 86.4049 48.0282 86.5677 47.3072 86.0793C46.5396 85.5676 46.0047 84.9396 45.8651 83.9628C44.9813 77.5202 44.051 71.1009 43.1904 64.6583C43.0974 63.9838 42.8183 63.5186 42.3066 63.1232C39.283 60.7276 36.2827 58.2855 33.2358 55.8898C32.4218 55.2619 32.0961 54.4478 32.1659 53.4477C32.2589 52.4243 32.98 51.7731 34.0033 51.7266C35.2825 51.6568 36.3989 52.2383 37.5619 52.6802C40.4924 53.7966 43.3997 54.913 46.3303 56.0526C46.8885 56.262 47.47 56.4713 47.8421 55.7735C48.1677 55.099 48.0747 54.5874 47.3769 54.0989C44.9348 52.308 43.6788 47.7726 44.7487 44.9351C45.6325 42.6325 48.0747 41.3533 50.8192 41.7254C53.2381 42.0743 55.0755 43.9815 55.215 46.4237C55.3778 49.3775 54.3777 51.9126 52.2379 53.9361C51.5867 54.5408 51.5402 55.1456 51.8658 55.7735C52.2379 56.5178 52.8892 56.2155 53.4939 55.9829C56.7501 54.7269 59.983 53.4942 63.2392 52.2383C63.7509 52.0522 64.2626 51.8661 64.7975 51.7731C65.8441 51.587 66.8442 51.6335 67.3559 52.7965C67.8444 53.8896 67.542 54.8665 66.6814 55.634C65.5883 56.6108 64.4254 57.4947 63.2857 58.425C61.1924 60.1229 59.0992 61.844 56.9827 63.5419C56.6338 63.821 56.4245 64.1001 56.3547 64.5885C55.5174 70.845 54.6568 77.0783 53.7963 83.3348C53.5172 85.6839 52.5403 86.4282 49.6795 86.4282Z" fill="#00A69B"/>
<path d="M45.0278 53.9362C42.3531 52.8896 39.9109 51.9593 37.4688 51.0057C36.8873 50.7731 36.3059 50.5638 35.7244 50.4009C32.5845 49.6102 30.9099 50.7266 30.2122 54.1456C28.2119 52.5407 26.235 51.0289 24.351 49.3776C23.5602 48.6798 23.3742 47.5867 23.9091 46.5866C24.4441 45.5865 25.3977 45.3771 26.421 45.6562C28.9562 46.354 31.3286 47.5402 33.794 48.424C35.1895 48.9124 36.5384 49.4474 37.934 49.959C38.5619 50.1916 39.2597 50.4242 39.7016 49.6799C40.1202 48.9589 39.6086 48.4472 39.1201 47.9821C36.9804 45.9586 35.9337 43.4467 35.9802 40.5161C36.0268 37.8181 38.1898 35.7016 40.9808 35.5155C43.8649 35.3295 46.307 37.1436 46.7954 39.7718C46.8885 40.33 46.8419 40.6557 46.2605 40.9813C43.3299 42.6559 42.1437 45.4469 42.8647 48.7729C43.2136 50.5405 43.8649 52.2151 45.0278 53.9362Z" fill="#00A69B"/>
<path d="M69.4027 54.1923C68.8445 50.6802 66.9838 49.4475 63.6811 50.4942C61.0064 51.3547 58.4015 52.4711 55.7733 53.4713C55.4942 53.5875 55.2151 53.6806 54.7266 53.8667C55.7035 52.2851 56.3547 50.7965 56.7501 49.1917C57.6339 45.6332 56.564 42.8654 53.4242 40.9582C52.6101 40.4698 52.9125 39.8186 53.052 39.2371C53.7033 36.7019 56.5175 35.0506 59.2388 35.5623C62.6345 36.1902 64.3789 39.0045 63.5416 42.6328C63.0764 44.7028 62.2158 46.5868 60.518 48.0055C59.9598 48.4707 59.6342 49.0754 60.0296 49.7266C60.4482 50.4011 61.1227 50.1686 61.7042 49.936C65.0999 48.6335 68.4956 47.331 71.8914 46.0286C72.3565 45.8425 72.845 45.6797 73.3334 45.5866C74.3567 45.4006 75.2871 45.5866 75.7988 46.61C76.2407 47.4706 75.9616 48.8196 75.1708 49.4708C73.2869 51.0756 71.3797 52.5874 69.4027 54.1923Z" fill="#00A69B"/>
<path d="M63.1694 47.6334C64.3556 45.7495 65.1464 43.8423 65.3557 41.6792C65.6581 38.4463 64.3091 35.8879 61.3087 34.5854C60.518 34.2365 60.3784 33.8179 60.4482 33.0969C60.704 30.2826 63.0531 28.3056 66.0535 28.3987C69.0073 28.4917 71.2633 30.585 71.2633 33.376C71.2633 36.5159 70.2167 39.1906 67.6118 41.1443C67.1001 41.5397 66.6117 41.9583 66.821 42.6793C67.0536 43.4469 67.7281 43.4003 68.3328 43.4236C70.0307 43.4934 71.7285 43.2608 73.4264 43.5864C73.7985 43.6562 74.1707 43.726 74.4963 43.9818C70.4726 44.2377 67.1001 46.6333 63.1694 47.6334Z" fill="#00A69B"/>
<path d="M36.9804 47.6564C33.073 46.6562 29.7006 44.3071 25.514 44.0048C26.3513 43.5396 27.1654 43.5164 27.9562 43.4698C29.1889 43.4233 30.4448 43.4466 31.6775 43.4466C32.352 43.4466 33.073 43.4466 33.2824 42.6325C33.4917 41.9115 32.887 41.5161 32.4218 41.144C29.6075 38.8647 28.3981 35.8876 29.0028 32.3058C29.4447 29.7008 32.0962 28.096 35.0267 28.4449C37.7015 28.7705 39.6319 30.887 39.6552 33.3989C39.6552 33.9804 39.4691 34.2595 38.9342 34.5153C35.4686 36.0969 34.0731 38.9344 34.8639 42.7953C35.2361 44.5397 35.9106 46.1446 36.9804 47.6564Z" fill="#00A69B"/>
<path d="M10.0936 23.2586C13.1405 22.7236 15.9082 22.4445 18.6993 22.9097C23.1881 23.6772 25.514 26.9334 24.6069 31.2362C24.4906 31.7944 24.2115 32.12 23.8161 32.4457C20.3739 35.1204 16.6525 34.6087 13.8848 31.0502C12.466 29.236 11.5124 27.166 10.6518 24.7471C13.7452 26.2822 16.6292 27.7475 19.5133 29.1895C19.5366 29.143 19.5831 29.0732 19.6063 29.0267C16.4897 27.1427 13.3963 25.2588 10.0936 23.2586Z" fill="#80A62A"/>
<path d="M31.7938 16.3737C30.4448 13.8153 29.1191 11.2801 27.7701 8.72168C31.6077 10.187 35.4686 11.5825 37.4688 15.5131C38.6783 17.8622 37.7712 21.3743 35.7012 23.0256C35.236 23.3978 34.7011 23.3745 34.1661 23.3978C30.0726 23.514 27.7933 21.7231 26.956 17.7227C26.5374 15.7225 26.7467 11.9313 27.4212 10.1637C28.8167 12.35 30.1889 14.4898 31.5612 16.6295C32.0264 17.3971 32.4915 18.1879 32.9567 18.9554C32.7474 17.9785 32.3752 17.1412 31.7938 16.3737Z" fill="#80A62A"/>
<path d="M6.18624 46.4007C10.1402 45.889 13.7917 45.4006 17.4666 44.9122C17.4666 44.8656 17.4666 44.8424 17.4666 44.7959C13.3964 45.0285 9.30287 45.2378 5.02332 45.4704C6.06995 44.1679 7.25613 43.2841 8.44231 42.4003C10.3262 41.0047 12.3032 39.8418 14.6756 39.5395C17.5131 39.1673 20.8623 41.4467 21.4903 44.2144C21.5833 44.6098 21.5368 44.9819 21.4205 45.3541C20.3274 49.0522 17.1875 50.9361 13.4196 50.0755C10.8379 49.4941 8.58186 48.1683 6.18624 46.4007Z" fill="#80A62A"/>
<path d="M68.2164 17.3042C69.7282 14.9318 71.24 12.5595 72.8914 9.9778C73.4496 13.1875 73.8449 16.1645 72.8681 19.0718C71.6354 22.7699 68.6118 23.7235 65.1928 23.3747C64.8672 23.3514 64.6113 23.1886 64.3788 22.956C62.146 20.6534 61.0761 17.2112 63.5182 14.1411C65.7743 11.2803 68.9839 9.86151 72.5425 8.48926C70.9376 11.5129 69.4724 14.3039 68.0071 17.0949L67.1233 19.1416C67.4721 18.5136 67.8443 17.9089 68.2164 17.3042Z" fill="#7FA62A"/>
<path d="M81.9855 28.5148C84.4276 27.3054 86.8698 26.0727 89.5445 24.747C88.2885 28.0962 86.9861 31.1663 84.102 33.12C81.2645 35.0505 78.3339 34.0736 75.9848 32.1432C75.4964 31.7478 75.4964 31.0965 75.4499 30.5383C75.101 26.282 77.2175 23.6073 81.4505 22.9096C84.2416 22.4444 86.9861 22.7002 90.0097 23.2584C87.1024 25.0261 84.4276 26.6542 81.7296 28.3055L79.7992 29.701C80.5667 29.3056 81.2877 28.9102 81.9855 28.5148Z" fill="#80A62A"/>
<path d="M84.7997 45.2146C87.7768 45.61 90.7771 45.9821 94.0565 46.424C90.7538 48.5871 87.7768 50.6571 83.8461 50.1919C80.9155 49.843 79.2177 47.2148 78.5664 44.8192C78.4734 44.4703 78.6362 44.2145 78.7758 43.9354C80.4038 40.0977 83.567 38.7022 87.5442 40.0977C90.4747 41.1444 92.7541 43.1213 95.2427 45.4704C91.6842 45.3076 88.4513 45.1448 85.2416 45.0053C85.2416 45.0053 83.3809 44.8192 82.4273 44.982C83.2414 45.0518 84.0089 45.1216 84.7997 45.2146Z" fill="#80A62B"/>
<path d="M35.0731 59.2158C37.1896 60.9137 39.0968 62.472 41.0273 64.0303C41.3529 64.2862 41.4925 64.6118 41.5622 65.0072C42.3763 70.4264 42.9345 75.8921 44.0276 81.2881C44.0974 81.6137 44.2137 82.0091 43.6322 82.0091C42.7484 82.0091 41.8181 82.1486 40.9808 81.9626C39.7481 81.73 38.9573 80.9159 38.7247 79.6135C37.9572 75.2641 37.1896 70.9381 36.4221 66.5887C35.9802 64.1931 35.5383 61.7975 35.0731 59.2158Z" fill="#00A69B"/>
<path d="M64.565 59.2393C63.7277 64.0538 62.9136 68.6124 62.0996 73.1711C61.7507 75.148 61.4018 77.125 61.0297 79.102C60.6343 81.2883 59.7272 82.0325 57.4479 82.0325C55.4942 82.0093 55.564 82.0325 55.8431 80.1253C56.5873 75.2643 57.2851 70.4033 57.9828 65.5655C58.0991 64.7515 58.3782 64.1468 59.0527 63.6351C60.9134 62.2629 62.6345 60.7976 64.565 59.2393Z" fill="#00A69B"/>
<path d="M45.6557 33.7017C45.7022 30.5153 47.9816 28.329 51.0982 28.3522C54.0055 28.3755 56.4011 30.5618 56.4476 33.2132C56.4476 33.818 56.3314 34.1436 55.6801 34.3994C53.2845 35.3298 51.6797 36.9579 51.261 39.5861C51.1912 40.0512 50.9819 40.214 50.5865 40.0977C50.1214 39.9815 49.4003 40.4699 49.2375 39.6326C48.8654 37.5626 47.7722 36.0275 45.9813 34.9344C45.4231 34.632 45.772 34.0506 45.6557 33.7017Z" fill="#00A69B"/>
<path d="M4.74416 33.6548C3.65101 33.399 2.55787 33.1431 1.46472 32.8873C2.93 31.3057 7.04675 30.4684 8.8609 31.3522C10.1401 31.9802 11.303 34.12 10.9309 35.1899C10.4425 36.5388 8.3027 37.7483 6.83742 37.4459C4.65113 36.9808 3.25562 35.4457 1.76708 33.6315C2.67416 33.7246 3.37191 33.8176 4.04641 33.8874C4.04641 33.8874 6.69787 34.3758 8.04686 34.4688C6.97697 34.0037 4.74416 33.6548 4.74416 33.6548Z" fill="#C6D201"/>
<path d="M95.7312 33.8875C96.429 33.7944 97.1035 33.7247 97.8012 33.6316C97.0337 35.3062 94.6381 37.1669 92.8937 37.446C91.2424 37.7019 88.8467 36.1435 88.8002 34.7713C88.7537 33.1665 90.126 31.4221 91.754 31.0267C92.7309 30.7941 93.6845 30.9104 94.6148 31.143C95.9173 31.4686 97.1733 31.957 98.5455 32.7943C97.3128 33.0967 96.2662 33.3525 95.2196 33.6084L91.6843 34.5852C93.0565 34.3759 94.4055 34.1201 95.7312 33.8875Z" fill="#C6D201"/>
<path d="M81.5436 14.7925C82.2413 14.1412 82.9624 13.49 83.6834 12.8388C84.0555 14.7227 83.1717 17.4439 81.8692 18.6534C80.8691 19.5604 78.5665 19.793 77.5199 19.072C76.6361 18.444 76.2872 16.1647 76.9152 14.9785C77.3338 14.1645 77.985 13.583 78.7758 13.1411C80.2876 12.3038 81.939 11.9782 83.8694 11.7456C82.8926 12.862 82.0553 13.8389 81.2412 14.7925C80.497 15.5367 79.9388 16.4206 79.1945 17.1648C79.241 17.2113 79.148 17.1183 79.1945 17.1648C79.962 16.374 80.7528 15.5832 81.5436 14.7925Z" fill="#C6D201"/>
<path d="M16.9083 12.8851C16.6525 12.5595 16.3734 12.2339 15.9547 11.7222C18.3968 12.0943 20.5831 12.3967 22.2577 14.048C23.3974 15.1877 23.5602 17.3042 22.6997 18.6532C22.0717 19.6068 19.6528 19.8161 18.4201 19.0253C17.0479 18.1415 15.6058 14.6992 16.0012 13.1409C16.164 12.4897 16.6059 13.2107 16.6059 13.2107C17.9084 14.5132 19.2109 15.7924 20.5134 17.0949C20.5831 17.0251 20.4436 17.1646 20.5134 17.0949C19.2342 15.7459 18.1643 14.2108 16.9083 12.8851Z" fill="#C6D201"/>
<path d="M28.6771 28.0959C27.5142 28.0959 26.6769 27.3052 26.6769 26.1655C26.6769 25.0723 27.4909 24.2816 28.5841 24.2583C29.7703 24.235 30.5843 25.0491 30.5843 26.1887C30.5843 27.2819 29.7703 28.0959 28.6771 28.0959Z" fill="#C6D202"/>
<path d="M71.0772 24.2583C72.1936 24.2583 73.0774 25.1421 73.0542 26.2353C73.0077 27.2819 72.1704 28.0959 71.0772 28.0959C69.891 28.0959 69.1235 27.3052 69.1468 26.119C69.17 25.0258 69.9608 24.2583 71.0772 24.2583Z" fill="#C6D202"/>
<path d="M26.6769 38.6324C26.7002 39.7488 25.8396 40.6326 24.7464 40.6326C23.6533 40.6326 22.7462 39.7488 22.7462 38.6789C22.7462 37.6788 23.63 36.7485 24.6534 36.702C25.7233 36.6554 26.6536 37.5393 26.6769 38.6324Z" fill="#C6D202"/>
<path d="M42.6322 25.3049C41.4692 25.3049 40.6552 24.4909 40.6785 23.3512C40.7017 22.2813 41.539 21.4673 42.6322 21.4673C43.7951 21.4673 44.6091 22.2813 44.5859 23.4443C44.5394 24.5607 43.7718 25.3049 42.6322 25.3049Z" fill="#C6D201"/>
<path d="M75.0545 36.7017C76.1011 36.7249 76.9384 37.6087 76.9151 38.6786C76.9151 39.8183 76.0546 40.6556 74.9149 40.6323C73.7753 40.6091 73.0077 39.7485 73.0543 38.5623C73.124 37.4924 74.0078 36.6784 75.0545 36.7017Z" fill="#C6D202"/>
<path d="M57.0756 25.3052C55.936 25.3052 55.1917 24.561 55.1685 23.4213C55.1452 22.2584 55.9592 21.4443 57.1222 21.4443C58.2153 21.4676 59.0294 22.2584 59.0294 23.3283C59.0294 24.5145 58.2386 25.3285 57.0756 25.3052Z" fill="#C6D201"/>
<path d="M62.4716 3.83764C62.7739 2.93056 63.0763 2.02348 63.3787 1.09315C64.6114 2.55843 65.1696 5.3727 64.6114 7.04731C64.1694 8.32652 62.2623 9.65225 61.0063 9.5127C59.9364 9.39641 58.5176 7.55899 58.4944 6.21C58.4711 5.30292 58.7502 4.46562 59.2387 3.69809C60.169 2.23281 61.4482 1.13966 63.0065 0C62.7042 1.46528 62.4483 2.69798 62.1692 3.95393C61.8901 4.95405 61.8203 6.02394 61.518 7.02405C61.5878 7.04731 61.4482 7.00079 61.518 7.02405C61.8436 5.97742 62.1692 4.90753 62.4716 3.83764Z" fill="#C6D201"/>
<path d="M37.934 3.62832C37.7944 2.67472 37.6316 1.74438 37.4688 0.767529C39.2365 1.5118 41.0274 3.74461 41.3065 5.48899C41.5158 6.83798 40.4226 8.88472 39.2597 9.34989C38.2596 9.74529 36.1431 8.76843 35.4919 7.60551C35.0499 6.81472 34.9104 5.9309 34.9802 5.02382C35.1197 3.3027 35.7477 1.74438 36.6315 0C37.0269 1.44202 37.3758 2.65146 37.7247 3.88416C37.934 4.90753 38.3759 5.88439 38.5852 6.90776C38.655 6.8845 38.5155 6.93101 38.5852 6.90776C38.3759 5.81461 38.1666 4.72146 37.934 3.62832Z" fill="#C6D201"/>
<path d="M31.4077 124.084V118.634H35.0381V119.394H32.2673V121.021H34.5853V121.735H32.2673V124.084H31.4077Z" fill="#7FA62A"/>
<path d="M35.745 124.084V120.07H36.5893V124.084H35.745ZM35.745 119.41V118.481H36.5893V119.41H35.745Z" fill="#7FA62A"/>
<path d="M41.2036 124.084H40.3593V121.835C40.3593 121.456 40.2979 121.183 40.1751 121.014C40.0574 120.84 39.8809 120.753 39.6455 120.753C39.5227 120.753 39.3999 120.776 39.2771 120.822C39.1543 120.868 39.0392 120.934 38.9317 121.021C38.8243 121.103 38.727 121.203 38.6401 121.321C38.5582 121.433 38.4942 121.559 38.4482 121.697V124.084H37.6039V120.07H38.3714V120.876C38.5249 120.604 38.7475 120.392 39.0392 120.239C39.3308 120.08 39.6532 120.001 40.0063 120.001C40.2467 120.001 40.4437 120.044 40.5973 120.131C40.7508 120.218 40.871 120.338 40.958 120.492C41.0501 120.64 41.1141 120.814 41.1499 121.014C41.1857 121.208 41.2036 121.415 41.2036 121.635V124.084Z" fill="#7FA62A"/>
<path d="M43.2504 124.161C43.056 124.161 42.8744 124.13 42.7055 124.069C42.5418 124.002 42.3985 123.913 42.2757 123.8C42.158 123.687 42.0633 123.554 41.9917 123.401C41.9252 123.247 41.8919 123.081 41.8919 122.902C41.8919 122.713 41.9328 122.541 42.0147 122.388C42.0966 122.234 42.2117 122.101 42.3601 121.989C42.5136 121.876 42.6927 121.789 42.8974 121.728C43.1072 121.666 43.3374 121.635 43.5882 121.635C43.7775 121.635 43.9642 121.653 44.1484 121.689C44.3327 121.72 44.499 121.763 44.6473 121.82V121.543C44.6473 121.247 44.5629 121.016 44.3941 120.853C44.2252 120.684 43.9822 120.599 43.6649 120.599C43.45 120.599 43.2376 120.64 43.0279 120.722C42.8232 120.799 42.6108 120.911 42.3908 121.06L42.1298 120.523C42.6467 120.175 43.1839 120.001 43.7417 120.001C44.2943 120.001 44.7241 120.141 45.0311 120.423C45.3381 120.704 45.4916 121.108 45.4916 121.635V123.086C45.4916 123.265 45.5658 123.357 45.7142 123.362V124.084C45.6323 124.099 45.5607 124.109 45.4993 124.115C45.443 124.12 45.3867 124.122 45.3304 124.122C45.1667 124.122 45.0388 124.081 44.9467 123.999C44.8597 123.918 44.806 123.813 44.7855 123.685L44.7625 123.432C44.5834 123.667 44.3608 123.849 44.0947 123.976C43.8338 124.099 43.5523 124.161 43.2504 124.161ZM43.4807 123.539C43.6854 123.539 43.8773 123.503 44.0563 123.432C44.2406 123.355 44.3838 123.25 44.4862 123.117C44.5936 123.025 44.6473 122.928 44.6473 122.825V122.296C44.5041 122.239 44.3506 122.196 44.1868 122.165C44.0282 122.134 43.8721 122.119 43.7186 122.119C43.4167 122.119 43.1686 122.186 42.9741 122.319C42.7848 122.447 42.6901 122.618 42.6901 122.833C42.6901 123.032 42.7643 123.201 42.9127 123.339C43.0611 123.472 43.2504 123.539 43.4807 123.539Z" fill="#7FA62A"/>
<path d="M50.1156 124.084H49.2713V121.835C49.2713 121.456 49.2099 121.183 49.0871 121.014C48.9694 120.84 48.7929 120.753 48.5575 120.753C48.4347 120.753 48.3119 120.776 48.1891 120.822C48.0663 120.868 47.9512 120.934 47.8437 121.021C47.7363 121.103 47.6391 121.203 47.5521 121.321C47.4702 121.433 47.4062 121.559 47.3602 121.697V124.084H46.5159V120.07H47.2834V120.876C47.4369 120.604 47.6595 120.392 47.9512 120.239C48.2429 120.08 48.5652 120.001 48.9183 120.001C49.1588 120.001 49.3558 120.044 49.5093 120.131C49.6628 120.218 49.783 120.338 49.87 120.492C49.9621 120.64 50.0261 120.814 50.0619 121.014C50.0977 121.208 50.1156 121.415 50.1156 121.635V124.084Z" fill="#7FA62A"/>
<path d="M50.8039 123.554L53.214 120.668H50.8884V120.07H54.1043V120.599L51.7096 123.485H54.1273V124.084H50.8039V123.554Z" fill="#7FA62A"/>
<path d="M55.9476 124.161C55.7532 124.161 55.5716 124.13 55.4027 124.069C55.239 124.002 55.0957 123.913 54.9729 123.8C54.8552 123.687 54.7605 123.554 54.6889 123.401C54.6224 123.247 54.5891 123.081 54.5891 122.902C54.5891 122.713 54.6301 122.541 54.7119 122.388C54.7938 122.234 54.9089 122.101 55.0573 121.989C55.2108 121.876 55.3899 121.789 55.5946 121.728C55.8044 121.666 56.0346 121.635 56.2854 121.635C56.4747 121.635 56.6614 121.653 56.8456 121.689C57.0299 121.72 57.1962 121.763 57.3445 121.82V121.543C57.3445 121.247 57.2601 121.016 57.0913 120.853C56.9224 120.684 56.6794 120.599 56.3621 120.599C56.1472 120.599 55.9348 120.64 55.7251 120.722C55.5204 120.799 55.308 120.911 55.088 121.06L54.827 120.523C55.3439 120.175 55.8811 120.001 56.4389 120.001C56.9915 120.001 57.4213 120.141 57.7283 120.423C58.0353 120.704 58.1888 121.108 58.1888 121.635V123.086C58.1888 123.265 58.263 123.357 58.4114 123.362V124.084C58.3295 124.099 58.2579 124.109 58.1965 124.115C58.1402 124.12 58.0839 124.122 58.0276 124.122C57.8639 124.122 57.736 124.081 57.6439 123.999C57.5569 123.918 57.5032 123.813 57.4827 123.685L57.4597 123.432C57.2806 123.667 57.058 123.849 56.7919 123.976C56.531 124.099 56.2495 124.161 55.9476 124.161ZM56.1779 123.539C56.3826 123.539 56.5745 123.503 56.7535 123.432C56.9378 123.355 57.081 123.25 57.1834 123.117C57.2908 123.025 57.3445 122.928 57.3445 122.825V122.296C57.2013 122.239 57.0478 122.196 56.884 122.165C56.7254 122.134 56.5693 122.119 56.4158 122.119C56.1139 122.119 55.8658 122.186 55.6713 122.319C55.482 122.447 55.3873 122.618 55.3873 122.833C55.3873 123.032 55.4615 123.201 55.6099 123.339C55.7583 123.472 55.9476 123.539 56.1779 123.539Z" fill="#7FA62A"/>
<path d="M60.6714 124.161C60.3491 124.161 60.0267 124.109 59.7043 124.007C59.3871 123.9 59.1133 123.749 58.8831 123.554L59.2208 123.017C59.4613 123.191 59.6992 123.324 59.9346 123.416C60.17 123.503 60.4105 123.547 60.6561 123.547C60.9068 123.547 61.1038 123.498 61.2471 123.401C61.3955 123.304 61.4696 123.165 61.4696 122.986C61.4696 122.817 61.3878 122.695 61.224 122.618C61.0603 122.541 60.8045 122.457 60.4565 122.365C60.2058 122.298 59.9909 122.234 59.8118 122.173C59.6327 122.111 59.4869 122.04 59.3743 121.958C59.2617 121.876 59.1799 121.781 59.1287 121.674C59.0775 121.566 59.0519 121.436 59.0519 121.282C59.0519 121.078 59.0903 120.896 59.1671 120.737C59.2489 120.579 59.3589 120.446 59.4971 120.338C59.6404 120.226 59.8067 120.141 59.996 120.085C60.1853 120.029 60.39 120.001 60.61 120.001C60.9119 120.001 61.1933 120.047 61.4543 120.139C61.7153 120.231 61.9481 120.364 62.1527 120.538L61.792 121.045C61.4185 120.748 61.0219 120.599 60.6023 120.599C60.3874 120.599 60.2058 120.645 60.0574 120.737C59.9141 120.824 59.8425 120.965 59.8425 121.16C59.8425 121.242 59.8578 121.311 59.8885 121.367C59.9192 121.423 59.9679 121.472 60.0344 121.513C60.106 121.554 60.1956 121.592 60.303 121.628C60.4156 121.659 60.5537 121.694 60.7175 121.735C60.9887 121.802 61.2215 121.868 61.4159 121.935C61.6155 122.001 61.7792 122.081 61.9071 122.173C62.0351 122.26 62.1297 122.365 62.1911 122.487C62.2525 122.605 62.2832 122.748 62.2832 122.917C62.2832 123.301 62.1374 123.605 61.8457 123.831C61.5592 124.051 61.1678 124.161 60.6714 124.161Z" fill="#7FA62A"/>
<path d="M65.0246 124.084V118.634H65.8842V124.084H65.0246Z" fill="#7FA62A"/>
<path d="M70.608 124.084H69.7638V121.835C69.7638 121.456 69.7024 121.183 69.5795 121.014C69.4619 120.84 69.2853 120.753 69.05 120.753C68.9271 120.753 68.8043 120.776 68.6815 120.822C68.5587 120.868 68.4436 120.934 68.3361 121.021C68.2287 121.103 68.1315 121.203 68.0445 121.321C67.9626 121.433 67.8987 121.559 67.8526 121.697V124.084H67.0083V120.07H67.7759V120.876C67.9294 120.604 68.1519 120.392 68.4436 120.239C68.7353 120.08 69.0576 120.001 69.4107 120.001C69.6512 120.001 69.8482 120.044 70.0017 120.131C70.1552 120.218 70.2754 120.338 70.3624 120.492C70.4545 120.64 70.5185 120.814 70.5543 121.014C70.5901 121.208 70.608 121.415 70.608 121.635V124.084Z" fill="#7FA62A"/>
<path d="M71.3271 122.073C71.3271 121.792 71.3757 121.525 71.4729 121.275C71.5701 121.024 71.7083 120.804 71.8873 120.615C72.0716 120.425 72.2916 120.277 72.5474 120.17C72.8033 120.057 73.0898 120.001 73.4071 120.001C73.8215 120.001 74.1771 120.093 74.4739 120.277C74.7758 120.456 75.001 120.697 75.1493 120.998L74.3281 121.259C74.2309 121.091 74.1004 120.96 73.9367 120.868C73.7729 120.771 73.5913 120.722 73.3917 120.722C73.2228 120.722 73.0642 120.755 72.9158 120.822C72.7726 120.888 72.6472 120.983 72.5397 121.106C72.4323 121.224 72.3479 121.364 72.2865 121.528C72.2251 121.692 72.1944 121.873 72.1944 122.073C72.1944 122.267 72.2251 122.449 72.2865 122.618C72.353 122.782 72.44 122.925 72.5474 123.048C72.66 123.171 72.7879 123.268 72.9312 123.339C73.0796 123.406 73.2356 123.439 73.3994 123.439C73.5017 123.439 73.6041 123.426 73.7064 123.401C73.8087 123.37 73.9008 123.329 73.9827 123.278C74.0697 123.227 74.1439 123.168 74.2053 123.101C74.2718 123.035 74.3204 122.963 74.3511 122.887L75.18 123.132C75.047 123.434 74.8244 123.682 74.5123 123.877C74.2002 124.066 73.8318 124.161 73.4071 124.161C73.0949 124.161 72.8109 124.104 72.5551 123.992C72.2993 123.879 72.0792 123.728 71.895 123.539C71.7159 123.345 71.5752 123.122 71.4729 122.871C71.3757 122.62 71.3271 122.354 71.3271 122.073Z" fill="#7FA62A"/>
<path d="M75.8831 118.481H76.7273V122.925C76.7273 123.073 76.7657 123.191 76.8425 123.278C76.9192 123.36 77.0267 123.401 77.1648 123.401C77.2211 123.401 77.2851 123.391 77.3567 123.37C77.4335 123.35 77.5051 123.327 77.5716 123.301L77.6944 123.961C77.5716 124.017 77.4258 124.061 77.2569 124.092C77.0881 124.127 76.9371 124.145 76.8041 124.145C76.5124 124.145 76.2847 124.066 76.121 123.907C75.9624 123.749 75.8831 123.524 75.8831 123.232V118.481Z" fill="#7FA62A"/>
<path d="M79.4197 124.161C79.0001 124.161 78.6829 124.025 78.4679 123.754C78.253 123.478 78.1456 123.068 78.1456 122.526V120.07H78.9899V122.357C78.9899 123.078 79.2457 123.439 79.7574 123.439C79.9979 123.439 80.2256 123.365 80.4405 123.217C80.6554 123.068 80.8217 122.853 80.9394 122.572V120.07H81.7837V123.086C81.7837 123.183 81.799 123.252 81.8297 123.293C81.8655 123.334 81.9269 123.357 82.0139 123.362V124.084C81.9269 124.099 81.8553 124.109 81.799 124.115C81.7427 124.12 81.689 124.122 81.6378 124.122C81.4843 124.122 81.3539 124.081 81.2464 123.999C81.1389 123.913 81.0827 123.802 81.0775 123.669L81.0622 123.27C80.8831 123.562 80.6503 123.785 80.3637 123.938C80.0772 124.086 79.7625 124.161 79.4197 124.161Z" fill="#7FA62A"/>
<path d="M84.3194 124.161C83.997 124.161 83.6747 124.109 83.3523 124.007C83.0351 123.9 82.7613 123.749 82.5311 123.554L82.8688 123.017C83.1093 123.191 83.3472 123.324 83.5826 123.416C83.8179 123.503 84.0584 123.547 84.304 123.547C84.5548 123.547 84.7518 123.498 84.895 123.401C85.0434 123.304 85.1176 123.165 85.1176 122.986C85.1176 122.817 85.0358 122.695 84.872 122.618C84.7083 122.541 84.4524 122.457 84.1045 122.365C83.8538 122.298 83.6389 122.234 83.4598 122.173C83.2807 122.111 83.1348 122.04 83.0223 121.958C82.9097 121.876 82.8278 121.781 82.7767 121.674C82.7255 121.566 82.6999 121.436 82.6999 121.282C82.6999 121.078 82.7383 120.896 82.815 120.737C82.8969 120.579 83.0069 120.446 83.1451 120.338C83.2883 120.226 83.4546 120.141 83.644 120.085C83.8333 120.029 84.038 120.001 84.258 120.001C84.5599 120.001 84.8413 120.047 85.1023 120.139C85.3632 120.231 85.596 120.364 85.8007 120.538L85.44 121.045C85.0665 120.748 84.6699 120.599 84.2503 120.599C84.0354 120.599 83.8538 120.645 83.7054 120.737C83.5621 120.824 83.4905 120.965 83.4905 121.16C83.4905 121.242 83.5058 121.311 83.5365 121.367C83.5672 121.423 83.6158 121.472 83.6823 121.513C83.754 121.554 83.8435 121.592 83.951 121.628C84.0635 121.659 84.2017 121.694 84.3654 121.735C84.6366 121.802 84.8695 121.868 85.0639 121.935C85.2635 122.001 85.4272 122.081 85.5551 122.173C85.683 122.26 85.7777 122.365 85.8391 122.487C85.9005 122.605 85.9312 122.748 85.9312 122.917C85.9312 123.301 85.7854 123.605 85.4937 123.831C85.2072 124.051 84.8157 124.161 84.3194 124.161Z" fill="#7FA62A"/>
<path d="M86.6687 124.084V120.07H87.513V124.084H86.6687ZM86.6687 119.41V118.481H87.513V119.41H86.6687Z" fill="#7FA62A"/>
<path d="M89.6559 124.084L88.1208 120.07H88.9881L90.1394 123.37L91.2984 120.07H92.0966L90.5616 124.084H89.6559Z" fill="#7FA62A"/>
<path d="M93.6645 124.161C93.47 124.161 93.2884 124.13 93.1195 124.069C92.9558 124.002 92.8125 123.913 92.6897 123.8C92.572 123.687 92.4774 123.554 92.4057 123.401C92.3392 123.247 92.3059 123.081 92.3059 122.902C92.3059 122.713 92.3469 122.541 92.4287 122.388C92.5106 122.234 92.6257 122.101 92.7741 121.989C92.9276 121.876 93.1067 121.789 93.3114 121.728C93.5212 121.666 93.7515 121.635 94.0022 121.635C94.1915 121.635 94.3783 121.653 94.5625 121.689C94.7467 121.72 94.913 121.763 95.0614 121.82V121.543C95.0614 121.247 94.9769 121.016 94.8081 120.853C94.6392 120.684 94.3962 120.599 94.0789 120.599C93.864 120.599 93.6517 120.64 93.4419 120.722C93.2372 120.799 93.0249 120.911 92.8048 121.06L92.5439 120.523C93.0607 120.175 93.598 120.001 94.1557 120.001C94.7083 120.001 95.1381 120.141 95.4451 120.423C95.7521 120.704 95.9057 121.108 95.9057 121.635V123.086C95.9057 123.265 95.9798 123.357 96.1282 123.362V124.084C96.0464 124.099 95.9747 124.109 95.9133 124.115C95.857 124.12 95.8008 124.122 95.7445 124.122C95.5807 124.122 95.4528 124.081 95.3607 123.999C95.2737 123.918 95.22 123.813 95.1995 123.685L95.1765 123.432C94.9974 123.667 94.7748 123.849 94.5087 123.976C94.2478 124.099 93.9664 124.161 93.6645 124.161ZM93.8947 123.539C94.0994 123.539 94.2913 123.503 94.4704 123.432C94.6546 123.355 94.7979 123.25 94.9002 123.117C95.0076 123.025 95.0614 122.928 95.0614 122.825V122.296C94.9181 122.239 94.7646 122.196 94.6009 122.165C94.4422 122.134 94.2862 122.119 94.1327 122.119C93.8308 122.119 93.5826 122.186 93.3882 122.319C93.1988 122.447 93.1042 122.618 93.1042 122.833C93.1042 123.032 93.1784 123.201 93.3268 123.339C93.4751 123.472 93.6645 123.539 93.8947 123.539Z" fill="#7FA62A"/>
<path d="M98.3882 124.161C98.0659 124.161 97.7435 124.109 97.4212 124.007C97.1039 123.9 96.8302 123.749 96.5999 123.554L96.9376 123.017C97.1781 123.191 97.416 123.324 97.6514 123.416C97.8868 123.503 98.1273 123.547 98.3729 123.547C98.6236 123.547 98.8206 123.498 98.9639 123.401C99.1123 123.304 99.1865 123.165 99.1865 122.986C99.1865 122.817 99.1046 122.695 98.9409 122.618C98.7771 122.541 98.5213 122.457 98.1733 122.365C97.9226 122.298 97.7077 122.234 97.5286 122.173C97.3495 122.111 97.2037 122.04 97.0911 121.958C96.9786 121.876 96.8967 121.781 96.8455 121.674C96.7943 121.566 96.7688 121.436 96.7688 121.282C96.7688 121.078 96.8071 120.896 96.8839 120.737C96.9658 120.579 97.0758 120.446 97.2139 120.338C97.3572 120.226 97.5235 120.141 97.7128 120.085C97.9021 120.029 98.1068 120.001 98.3268 120.001C98.6287 120.001 98.9102 120.047 99.1711 120.139C99.4321 120.231 99.6649 120.364 99.8696 120.538L99.5088 121.045C99.1353 120.748 98.7388 120.599 98.3192 120.599C98.1043 120.599 97.9226 120.645 97.7742 120.737C97.631 120.824 97.5593 120.965 97.5593 121.16C97.5593 121.242 97.5747 121.311 97.6054 121.367C97.6361 121.423 97.6847 121.472 97.7512 121.513C97.8228 121.554 97.9124 121.592 98.0198 121.628C98.1324 121.659 98.2706 121.694 98.4343 121.735C98.7055 121.802 98.9383 121.868 99.1327 121.935C99.3323 122.001 99.496 122.081 99.624 122.173C99.7519 122.26 99.8465 122.365 99.908 122.487C99.9694 122.605 100 122.748 100 122.917C100 123.301 99.8542 123.605 99.5626 123.831C99.276 124.051 98.8846 124.161 98.3882 124.161Z" fill="#7FA62A"/>
</svg>
